<?xml version="1.0" encoding="utf-8"?>
<!-- Generator: Adobe Illustrator 16.0.0, SVG Export Plug-In . SVG Version: 6.00 Build 0)  -->
<!DOCTYPE svg PUBLIC "-//W3C//DTD SVG 1.1//EN" "http://www.w3.org/Graphics/SVG/1.1/DTD/svg11.dtd">
<svg version="1.1" id="Layer_1" xmlns="http://www.w3.org/2000/svg" xmlns:xlink="http://www.w3.org/1999/xlink" x="0px" y="0px"
	 width="242px" height="151px" viewBox="0 0 242 151" enable-background="new 0 0 242 151" xml:space="preserve">
<g>
	<defs>
		<rect id="SVGID_1_" x="-20.116" y="-22.315" width="265.585" height="198.492"/>
	</defs>
	<clipPath id="SVGID_2_">
		<use xlink:href="#SVGID_1_"  overflow="visible"/>
	</clipPath>
	<g clip-path="url(#SVGID_2_)">
		<defs>
			<rect id="SVGID_3_" x="-20.116" y="-22.315" width="265.583" height="198.492"/>
		</defs>
		<clipPath id="SVGID_4_">
			<use xlink:href="#SVGID_3_"  overflow="visible"/>
		</clipPath>
		<path clip-path="url(#SVGID_4_)" fill="#3B7B55" stroke="#070808" stroke-width="2" stroke-miterlimit="10" d="M218.982,142.642
			l-8-11.05c0,0-30.611,2.159-51.949-16.512l-0.508,2.159c0,0-19.813-19.052-41.406-19.433c8.13,9.526,6.621,9.255,6.621,9.255
			s12.527,0.287,16.146,5.479s5.381,5.478,7.43,6.572c2.049,1.097,5.717,1.811,12.383,7.287c6.67,5.478,10.48,5.669,10.48,5.669
			l-3.668,2c0,0,8.145-1.017,16.211,1.714C190.787,138.514,201.52,142.388,218.982,142.642"/>
		<path clip-path="url(#SVGID_4_)" fill="#2B2E2E" d="M187.504,119.967c-4.457-3.08-9.703-3.745-13.615-2.13
			c-0.998-0.904-2.324-1.457-3.777-1.457c-0.391,0-0.775,0.04-1.143,0.117c-0.086-1.278-0.752-3.159-2.898-3.857
			c-0.094-0.644-0.645-1.139-1.314-1.139c-0.734,0-1.33,0.595-1.33,1.331c0,0.734,0.596,1.329,1.33,1.329
			c0.461,0,0.865-0.233,1.105-0.589c1.951,0.688,2.152,2.557,2.162,3.211c-2.07,0.829-3.531,2.852-3.531,5.217
			c0,0.251,0.02,0.495,0.051,0.737c-0.787,0.13-2.576,0.295-3.877-0.562c0.01-0.063,0.014-0.124,0.014-0.187
			c0-0.736-0.594-1.331-1.33-1.331c-0.734,0-1.33,0.595-1.33,1.331c0,0.734,0.596,1.329,1.33,1.329c0.324,0,0.623-0.115,0.852-0.309
			c0.977,0.62,2.125,0.787,3.072,0.787c0.605,0,1.129-0.067,1.473-0.127c0.533,1.711,1.857,3.072,3.549,3.649
			c0.361,3.856,2.768,7.897,6.764,10.659c6.326,4.37,14.238,3.881,17.676-1.092C196.17,131.912,193.828,124.338,187.504,119.967"/>
		<path clip-path="url(#SVGID_4_)" fill="#EE5B5E" stroke="#070808" stroke-miterlimit="10" d="M177.172,125.823
			c-0.277-0.164-0.541-0.354-0.768-0.582c-1.656-1.666-2.238-5.009-0.26-7.337c2.16-2.541,8.129-1.905,11.748,0.952
			c3.621,2.857,9.59,8.51,5.906,17.21C183.377,129.518,178.373,126.533,177.172,125.823"/>
		<path clip-path="url(#SVGID_4_)" fill="#EE5B5E" stroke="#070808" stroke-miterlimit="10" d="M176.984,126.111
			c-0.273-0.173-0.561-0.321-0.867-0.421c-2.238-0.72-5.48,0.278-6.656,3.1c-1.285,3.076,1.99,8.107,6.18,10.036
			s11.934,4.684,18.016-2.547C183.092,129.964,178.162,126.859,176.984,126.111"/>
		<path clip-path="url(#SVGID_4_)" fill="#2B2E2E" d="M181.225,120.443c0,1.299-1.051,2.35-2.35,2.35c-1.297,0-2.35-1.051-2.35-2.35
			c0-1.297,1.053-2.35,2.35-2.35C180.174,118.094,181.225,119.146,181.225,120.443"/>
		<path clip-path="url(#SVGID_4_)" fill="#2B2E2E" d="M175.072,130.589c0,1.298-1.053,2.35-2.35,2.35s-2.35-1.052-2.35-2.35
			s1.053-2.35,2.35-2.35S175.072,129.291,175.072,130.589"/>
		<path clip-path="url(#SVGID_4_)" fill="#2B2E2E" d="M191.029,129.351c0,1.298-1.053,2.35-2.35,2.35c-1.299,0-2.35-1.052-2.35-2.35
			s1.051-2.35,2.35-2.35C189.977,127.001,191.029,128.053,191.029,129.351"/>
		<path clip-path="url(#SVGID_4_)" fill="#2B2E2E" d="M187.273,134.971c0,1.298-1.051,2.35-2.35,2.35c-1.297,0-2.35-1.052-2.35-2.35
			s1.053-2.35,2.35-2.35C186.223,132.621,187.273,133.673,187.273,134.971"/>
		<path clip-path="url(#SVGID_4_)" fill="#F7F8F8" d="M173.041,120.119c0,1.039-0.842,1.881-1.881,1.881
			c-1.041,0-1.883-0.842-1.883-1.881s0.842-1.882,1.883-1.882C172.199,118.237,173.041,119.08,173.041,120.119"/>
		<path clip-path="url(#SVGID_4_)" fill="#F7F8F8" d="M170.373,123.882c0,1.039-0.842,1.881-1.881,1.881s-1.881-0.842-1.881-1.881
			s0.842-1.882,1.881-1.882S170.373,122.843,170.373,123.882"/>
		<path clip-path="url(#SVGID_4_)" fill="#D57D59" d="M110.251,84.466c0,17.068-13.836,30.903-30.903,30.903
			s-30.903-13.835-30.903-30.903c0-17.067,13.835-30.903,30.903-30.903S110.251,67.399,110.251,84.466"/>
		<path clip-path="url(#SVGID_4_)" fill="#FABB62" d="M71.599,75.05c0,0-23.835-19.636-23.835-38.123
			c0-26.525,25.722-22.851,29.626-30.314c5.354,8.871,11.468,0.646,17.712,7.794c6.244,7.148,13.349,7.65,15.588,13.162
			c2.24,5.512-11.597,37.262-21.703,44.84C86.232,74.591,71.599,75.05,71.599,75.05"/>
		<path clip-path="url(#SVGID_4_)" fill="none" stroke="#000000" stroke-width="5" stroke-miterlimit="10" d="M71.599,75.05
			c0,0-23.835-19.636-23.835-38.123c0-26.525,25.722-22.851,29.626-30.314c5.354,8.871,11.468,0.646,17.712,7.794
			c6.244,7.148,13.349,7.65,15.588,13.162c2.24,5.512-11.597,37.262-21.703,44.84C86.232,74.591,71.599,75.05,71.599,75.05z"/>
		<path clip-path="url(#SVGID_4_)" fill="#FABB62" d="M93.581,89.748c0,0,1.837-12.057,2.067-27.329
			c0.229-15.272,13.09-29.167,27.788-29.167c14.699,0,21.014,8.957,21.014,21.013c0,12.057,9.188,15.502,9.188,15.502
			s-2.986,2.871-4.479,9.072c-1.492,6.2-3.789,32.381-45.128,16.075C98.978,92.733,93.581,89.748,93.581,89.748"/>
		<path clip-path="url(#SVGID_4_)" fill="none" stroke="#000000" stroke-width="5" stroke-miterlimit="10" d="M93.581,89.748
			c0,0,1.837-12.057,2.067-27.329c0.229-15.272,13.09-29.167,27.788-29.167c14.699,0,21.014,8.957,21.014,21.013
			c0,12.057,9.188,15.502,9.188,15.502s-2.986,2.871-4.479,9.072c-1.492,6.2-3.789,32.381-45.128,16.075
			C98.978,92.733,93.581,89.748,93.581,89.748z"/>
	</g>
	<g clip-path="url(#SVGID_2_)">
		<defs>
			<rect id="SVGID_5_" x="94.167" y="33.284" width="57.064" height="66.894"/>
		</defs>
		<clipPath id="SVGID_6_">
			<use xlink:href="#SVGID_5_"  overflow="visible"/>
		</clipPath>
		<g clip-path="url(#SVGID_6_)">
			<defs>
				<rect id="SVGID_7_" x="94.167" y="33.284" width="57.064" height="66.894"/>
			</defs>
			<clipPath id="SVGID_8_">
				<use xlink:href="#SVGID_7_"  overflow="visible"/>
			</clipPath>
			<g transform="matrix(1 0 0 1 6.273452e-006 3.149205e-006)" clip-path="url(#SVGID_8_)">
				
					<image overflow="visible" width="1248" height="1463" xlink:href="E860D441.png"  transform="matrix(0.0457 0 0 0.0457 94.1665 33.2837)">
				</image>
			</g>
		</g>
	</g>
	<g clip-path="url(#SVGID_2_)">
		<defs>
			<rect id="SVGID_9_" x="-20.116" y="-22.315" width="265.583" height="198.492"/>
		</defs>
		<clipPath id="SVGID_10_">
			<use xlink:href="#SVGID_9_"  overflow="visible"/>
		</clipPath>
		<path clip-path="url(#SVGID_10_)" fill="#FABB62" d="M81.667,94.629c0,0,15.33-10.163,27.215-7.406
			c11.884,2.755,13.435,12.745,17.913,17.74s5.77,7.579,5.77,11.367c0,9.417-8.555,11.139-8.555,25.436
			c-25.075-2.569-35.625,5.439-39.629,0.53c-4.005-4.908-16.291-33.831-11.813-39.343C77.045,97.442,81.667,94.629,81.667,94.629"/>
		<path clip-path="url(#SVGID_10_)" fill="none" stroke="#000000" stroke-width="5" stroke-miterlimit="10" d="M81.667,94.629
			c0,0,15.33-10.163,27.215-7.406c11.884,2.755,13.435,12.745,17.913,17.74s5.77,7.579,5.77,11.367
			c0,9.417-8.555,11.139-8.555,25.436c-25.075-2.569-35.625,5.439-39.629,0.53c-4.005-4.908-16.291-33.831-11.813-39.343
			C77.045,97.442,81.667,94.629,81.667,94.629z"/>
	</g>
	<g clip-path="url(#SVGID_2_)">
		<defs>
			<rect id="SVGID_11_" x="71.622" y="86.778" width="60.951" height="57.11"/>
		</defs>
		<clipPath id="SVGID_12_">
			<use xlink:href="#SVGID_11_"  overflow="visible"/>
		</clipPath>
		<g clip-path="url(#SVGID_12_)">
			<defs>
				<rect id="SVGID_13_" x="71.622" y="86.778" width="60.951" height="57.11"/>
			</defs>
			<clipPath id="SVGID_14_">
				<use xlink:href="#SVGID_13_"  overflow="visible"/>
			</clipPath>
			<g transform="matrix(1 0 0 1 2.340448e-006 8.467903e-006)" clip-path="url(#SVGID_14_)">
				
					<image overflow="visible" width="1333" height="1249" xlink:href="E860D443.png"  transform="matrix(0.0457 0 0 0.0457 71.6216 86.7783)">
				</image>
			</g>
		</g>
	</g>
	<g clip-path="url(#SVGID_2_)">
		<defs>
			<rect id="SVGID_15_" x="-20.116" y="-22.315" width="265.583" height="198.492"/>
		</defs>
		<clipPath id="SVGID_16_">
			<use xlink:href="#SVGID_15_"  overflow="visible"/>
		</clipPath>
		<path clip-path="url(#SVGID_16_)" fill="#FABB62" d="M71.599,97.326c0,0,18.537,11.598,18.537,20.67
			c0,9.07-14.152,29.252-35.511,29.252c-12.918,0-15.544-5.124-23.64-0.388c-1.378-9.817-11.11-11.54-9.754-21.767
			c1.357-10.227-2.634-13.873-2.634-22.141S27.382,83.49,42.252,83.49S71.599,97.326,71.599,97.326"/>
		<path clip-path="url(#SVGID_16_)" fill="none" stroke="#000000" stroke-width="5" stroke-miterlimit="10" d="M71.599,97.326
			c0,0,18.537,11.598,18.537,20.67c0,9.07-14.152,29.252-35.511,29.252c-12.918,0-15.544-5.124-23.64-0.388
			c-1.378-9.817-11.11-11.54-9.754-21.767c1.357-10.227-2.634-13.873-2.634-22.141S27.382,83.49,42.252,83.49
			S71.599,97.326,71.599,97.326z"/>
	</g>
	<g clip-path="url(#SVGID_2_)">
		<defs>
			<rect id="SVGID_17_" x="18.629" y="83.521" width="71.512" height="63.739"/>
		</defs>
		<clipPath id="SVGID_18_">
			<use xlink:href="#SVGID_17_"  overflow="visible"/>
		</clipPath>
		<g clip-path="url(#SVGID_18_)">
			<defs>
				<rect id="SVGID_19_" x="18.629" y="83.521" width="71.512" height="63.739"/>
			</defs>
			<clipPath id="SVGID_20_">
				<use xlink:href="#SVGID_19_"  overflow="visible"/>
			</clipPath>
			<g transform="matrix(1 0 0 1 8.927743e-007 3.695081e-006)" clip-path="url(#SVGID_20_)">
				
					<image overflow="visible" width="1564" height="1394" xlink:href="E860D446.png"  transform="matrix(0.0457 0 0 0.0457 18.6294 83.5215)">
				</image>
			</g>
		</g>
	</g>
	<g clip-path="url(#SVGID_2_)">
		<defs>
			<rect id="SVGID_21_" x="-20.116" y="-22.315" width="265.583" height="198.492"/>
		</defs>
		<clipPath id="SVGID_22_">
			<use xlink:href="#SVGID_21_"  overflow="visible"/>
		</clipPath>
		<path clip-path="url(#SVGID_22_)" fill="#FABB62" d="M68.942,73.695c0.285,7.192-4.884,13.447-12.005,14.489
			c-11.372,1.667-28.019,3.53-34.722,1.392C11.594,86.189,9.584,80.217,9.584,74.878c0-5.339-3.215-9.301-3.215-12.229
			c0-2.929,2.871-5.455,1.952-10.162c10.564,0,16.535-9.761,33.645-9.761C56.583,42.726,68.058,51.401,68.942,73.695"/>
		<path clip-path="url(#SVGID_22_)" fill="none" stroke="#000000" stroke-width="5" stroke-miterlimit="10" d="M68.942,73.695
			c0.285,7.192-4.884,13.447-12.005,14.489c-11.372,1.667-28.019,3.53-34.722,1.392C11.594,86.189,9.584,80.217,9.584,74.878
			c0-5.339-3.215-9.301-3.215-12.229c0-2.929,2.871-5.455,1.952-10.162c10.564,0,16.535-9.761,33.645-9.761
			C56.583,42.726,68.058,51.401,68.942,73.695z"/>
	</g>
	<g clip-path="url(#SVGID_2_)">
		<defs>
			<rect id="SVGID_23_" x="6.481" y="42.757" width="62.368" height="47.782"/>
		</defs>
		<clipPath id="SVGID_24_">
			<use xlink:href="#SVGID_23_"  overflow="visible"/>
		</clipPath>
		<g transform="matrix(1 0 0 1 5.151234e-007 2.997551e-006)" clip-path="url(#SVGID_24_)">
			
				<image overflow="visible" width="1364" height="1045" xlink:href="E860D447.png"  transform="matrix(0.0457 0 0 0.0457 6.481 42.7573)">
			</image>
		</g>
	</g>
	<g clip-path="url(#SVGID_2_)">
		<defs>
			<rect id="SVGID_25_" x="-20.116" y="-22.315" width="265.583" height="198.492"/>
		</defs>
		<clipPath id="SVGID_26_">
			<use xlink:href="#SVGID_25_"  overflow="visible"/>
		</clipPath>
		<path clip-path="url(#SVGID_26_)" fill="#FABB62" d="M104.078,49.032C100.112,57.576,94,68.111,88.721,72.071
			c-1.328,1.051-5.939,1.722-10.24,2.116V8.843c2.545,2.851,5.265,2.791,7.911,2.734c2.86-0.062,5.561-0.123,8.387,3.112
			c3.007,3.443,6.17,5.343,8.962,7.019c3.033,1.82,5.429,3.26,6.55,6.023C111.285,30.175,108.671,39.134,104.078,49.032"/>
		<path clip-path="url(#SVGID_26_)" d="M111.09,27.407c-1.231-3.03-3.861-4.609-6.907-6.438c-2.736-1.643-5.837-3.505-8.756-6.845
			c-3.09-3.54-6.26-3.471-9.054-3.409c-2.895,0.064-5.432,0.119-7.892-3.238v1.366c2.545,2.851,5.265,2.791,7.911,2.734
			c2.86-0.062,5.561-0.123,8.387,3.112c3.007,3.443,6.17,5.343,8.962,7.019c3.033,1.82,5.429,3.26,6.55,6.023
			c0.994,2.444-1.619,11.402-6.213,21.301C100.112,57.576,94,68.111,88.721,72.071c-1.328,1.051-5.939,1.722-10.24,2.116v0.866
			c4.266-0.38,9.218-1.074,10.765-2.299c4.585-3.438,10.421-12.17,15.612-23.357C108.883,40.722,112.37,30.56,111.09,27.407"/>
	</g>
	<g clip-path="url(#SVGID_2_)">
		<defs>
			<rect id="SVGID_27_" x="71.622" y="9.884" width="39.277" height="64.7"/>
		</defs>
		<clipPath id="SVGID_28_">
			<use xlink:href="#SVGID_27_"  overflow="visible"/>
		</clipPath>
		<g transform="matrix(1 0 0 1 5.026502e-006 4.881245e-007)" clip-path="url(#SVGID_28_)">
			
				<image overflow="visible" width="859" height="1415" xlink:href="E860D442.png"  transform="matrix(0.0457 0 0 0.0457 71.6221 9.8838)">
			</image>
		</g>
	</g>
	<g clip-path="url(#SVGID_2_)">
		<defs>
			<rect id="SVGID_29_" x="47.795" y="8.968" width="63.1" height="65.98"/>
		</defs>
		<clipPath id="SVGID_30_">
			<use xlink:href="#SVGID_29_"  overflow="visible"/>
		</clipPath>
		<g clip-path="url(#SVGID_30_)">
			<defs>
				<rect id="SVGID_31_" x="47.795" y="8.968" width="63.1" height="65.979"/>
			</defs>
			<clipPath id="SVGID_32_">
				<use xlink:href="#SVGID_31_"  overflow="visible"/>
			</clipPath>
			<g transform="matrix(1 0 0 1 5.286229e-006 8.965491e-007)" clip-path="url(#SVGID_32_)">
				
					<image overflow="visible" width="1380" height="1443" xlink:href="E860D44D.png"  transform="matrix(0.0457 0 0 0.0457 47.7954 8.9678)">
				</image>
			</g>
		</g>
	</g>
	<g clip-path="url(#SVGID_2_)">
		<defs>
			<rect id="SVGID_33_" x="-20.116" y="-22.315" width="265.583" height="198.492"/>
		</defs>
		<clipPath id="SVGID_34_">
			<use xlink:href="#SVGID_33_"  overflow="visible"/>
		</clipPath>
		<path clip-path="url(#SVGID_34_)" d="M52.209,71.25c0,1.595-1.293,2.888-2.889,2.888c-1.595,0-2.888-1.293-2.888-2.888
			c0-1.595,1.293-2.888,2.888-2.888C50.917,68.361,52.209,69.655,52.209,71.25"/>
		<path clip-path="url(#SVGID_34_)" fill="#EE5B5E" d="M51.674,71.25c0,1.3-1.053,2.353-2.353,2.353
			c-1.299,0-2.352-1.053-2.352-2.353c0-1.299,1.053-2.352,2.352-2.352C50.621,68.897,51.674,69.951,51.674,71.25"/>
		<path clip-path="url(#SVGID_34_)" d="M58.377,66.009c0,1.595-1.292,2.889-2.888,2.889c-1.595,0-2.888-1.293-2.888-2.889
			c0-1.595,1.293-2.888,2.888-2.888C57.084,63.121,58.377,64.414,58.377,66.009"/>
		<path clip-path="url(#SVGID_34_)" fill="#EE5B5E" d="M57.842,66.009c0,1.3-1.053,2.353-2.353,2.353
			c-1.299,0-2.353-1.053-2.353-2.353c0-1.299,1.054-2.352,2.353-2.352C56.789,63.657,57.842,64.709,57.842,66.009"/>
		<path clip-path="url(#SVGID_34_)" d="M58.139,73.552c0,1.595-1.293,2.887-2.888,2.887s-2.888-1.292-2.888-2.887
			c0-1.596,1.292-2.889,2.888-2.889S58.139,71.957,58.139,73.552"/>
		<path clip-path="url(#SVGID_34_)" fill="#EE5B5E" d="M57.604,73.552c0,1.299-1.054,2.353-2.353,2.353s-2.353-1.054-2.353-2.353
			c0-1.299,1.053-2.353,2.353-2.353S57.604,72.253,57.604,73.552"/>
		<path clip-path="url(#SVGID_34_)" d="M58.675,80.029c0,1.595-1.293,2.889-2.888,2.889s-2.888-1.294-2.888-2.889
			s1.293-2.889,2.888-2.889S58.675,78.435,58.675,80.029"/>
		<path clip-path="url(#SVGID_34_)" fill="#EE5B5E" d="M58.139,80.029c0,1.3-1.053,2.354-2.353,2.354
			c-1.3,0-2.353-1.054-2.353-2.354c0-1.299,1.053-2.353,2.353-2.353C57.086,77.677,58.139,78.73,58.139,80.029"/>
		<path clip-path="url(#SVGID_34_)" d="M61.169,91.206c0,1.595-1.293,2.889-2.888,2.889c-1.595,0-2.889-1.294-2.889-2.889
			s1.293-2.888,2.889-2.888C59.875,88.318,61.169,89.611,61.169,91.206"/>
		<path clip-path="url(#SVGID_34_)" fill="#EE5B5E" d="M60.633,91.206c0,1.3-1.053,2.354-2.352,2.354
			c-1.3,0-2.353-1.054-2.353-2.354s1.053-2.352,2.353-2.352C59.58,88.854,60.633,89.906,60.633,91.206"/>
		<path clip-path="url(#SVGID_34_)" d="M64.057,96.982c0,1.595-1.293,2.889-2.888,2.889c-1.596,0-2.888-1.294-2.888-2.889
			s1.292-2.888,2.888-2.888C62.764,94.095,64.057,95.388,64.057,96.982"/>
		<path clip-path="url(#SVGID_34_)" fill="#EE5B5E" d="M63.521,96.982c0,1.3-1.054,2.354-2.353,2.354
			c-1.3,0-2.353-1.054-2.353-2.354c0-1.299,1.053-2.353,2.353-2.353C62.468,94.63,63.521,95.684,63.521,96.982"/>
		<path clip-path="url(#SVGID_34_)" d="M61.027,103.271c0,1.595-1.293,2.888-2.888,2.888s-2.888-1.293-2.888-2.888
			c0-1.596,1.293-2.889,2.888-2.889S61.027,101.675,61.027,103.271"/>
		<path clip-path="url(#SVGID_34_)" fill="#EE5B5E" d="M60.492,103.271c0,1.299-1.054,2.352-2.353,2.352
			c-1.299,0-2.353-1.053-2.353-2.352c0-1.3,1.054-2.354,2.353-2.354C59.438,100.917,60.492,101.971,60.492,103.271"/>
		<path clip-path="url(#SVGID_34_)" d="M64.837,107.905c0,1.595-1.292,2.889-2.888,2.889c-1.595,0-2.888-1.294-2.888-2.889
			s1.293-2.888,2.888-2.888C63.545,105.018,64.837,106.311,64.837,107.905"/>
		<path clip-path="url(#SVGID_34_)" fill="#EE5B5E" d="M64.302,107.905c0,1.3-1.053,2.354-2.353,2.354
			c-1.299,0-2.353-1.054-2.353-2.354c0-1.299,1.053-2.352,2.353-2.352C63.249,105.554,64.302,106.606,64.302,107.905"/>
		<path clip-path="url(#SVGID_34_)" d="M70.458,106.001c0,1.595-1.293,2.888-2.888,2.888c-1.595,0-2.888-1.293-2.888-2.888
			c0-1.596,1.293-2.888,2.888-2.888C69.165,103.113,70.458,104.405,70.458,106.001"/>
		<path clip-path="url(#SVGID_34_)" fill="#EE5B5E" d="M69.922,106.001c0,1.299-1.053,2.353-2.353,2.353
			c-1.3,0-2.353-1.054-2.353-2.353c0-1.3,1.053-2.354,2.353-2.354C68.869,103.647,69.922,104.701,69.922,106.001"/>
		<path clip-path="url(#SVGID_34_)" d="M69.298,99.871c0,1.596-1.293,2.888-2.888,2.888c-1.595,0-2.888-1.292-2.888-2.888
			c0-1.595,1.293-2.889,2.888-2.889C68.004,96.982,69.298,98.276,69.298,99.871"/>
		<path clip-path="url(#SVGID_34_)" fill="#EE5B5E" d="M68.762,99.871c0,1.299-1.054,2.353-2.353,2.353
			c-1.3,0-2.353-1.054-2.353-2.353s1.053-2.353,2.353-2.353C67.708,97.519,68.762,98.572,68.762,99.871"/>
		<path clip-path="url(#SVGID_34_)" d="M75.074,100.382c0,1.595-1.293,2.889-2.888,2.889s-2.888-1.294-2.888-2.889
			c0-1.596,1.292-2.888,2.888-2.888S75.074,98.786,75.074,100.382"/>
		<path clip-path="url(#SVGID_34_)" fill="#EE5B5E" d="M74.539,100.382c0,1.299-1.054,2.353-2.353,2.353s-2.353-1.054-2.353-2.353
			c0-1.3,1.053-2.353,2.353-2.353S74.539,99.082,74.539,100.382"/>
		<path clip-path="url(#SVGID_34_)" d="M63.521,69.98c0,1.595-1.293,2.888-2.889,2.888c-1.595,0-2.888-1.293-2.888-2.888
			c0-1.596,1.293-2.888,2.888-2.888C62.229,67.092,63.521,68.384,63.521,69.98"/>
		<path clip-path="url(#SVGID_34_)" fill="#EE5B5E" d="M62.985,69.98c0,1.299-1.053,2.353-2.353,2.353
			c-1.299,0-2.352-1.054-2.352-2.353c0-1.299,1.053-2.353,2.352-2.353C61.933,67.627,62.985,68.681,62.985,69.98"/>
		<path clip-path="url(#SVGID_34_)" d="M68.284,64.739c0,1.595-1.293,2.889-2.888,2.889s-2.888-1.293-2.888-2.889
			s1.292-2.888,2.888-2.888S68.284,63.144,68.284,64.739"/>
		<path clip-path="url(#SVGID_34_)" fill="#EE5B5E" d="M67.749,64.739c0,1.299-1.054,2.353-2.353,2.353s-2.353-1.054-2.353-2.353
			c0-1.299,1.053-2.353,2.353-2.353S67.749,63.44,67.749,64.739"/>
		<path clip-path="url(#SVGID_34_)" d="M77.175,76.439c0,1.596-1.293,2.89-2.889,2.89c-1.595,0-2.888-1.294-2.888-2.89
			c0-1.594,1.293-2.887,2.888-2.887C75.882,73.552,77.175,74.845,77.175,76.439"/>
		<path clip-path="url(#SVGID_34_)" fill="#EE5B5E" d="M76.639,76.439c0,1.3-1.053,2.354-2.353,2.354
			c-1.299,0-2.352-1.054-2.352-2.354c0-1.298,1.053-2.352,2.352-2.352C75.586,74.087,76.639,75.141,76.639,76.439"/>
		<path clip-path="url(#SVGID_34_)" d="M77.962,63.657c0,1.595-1.293,2.888-2.888,2.888s-2.888-1.293-2.888-2.888
			c0-1.595,1.292-2.889,2.888-2.889S77.962,62.062,77.962,63.657"/>
		<path clip-path="url(#SVGID_34_)" fill="#EE5B5E" d="M77.427,63.657c0,1.299-1.054,2.352-2.353,2.352
			c-1.299,0-2.353-1.053-2.353-2.352c0-1.3,1.054-2.353,2.353-2.353C76.373,61.304,77.427,62.357,77.427,63.657"/>
		<path clip-path="url(#SVGID_34_)" d="M90.98,60.232c0,1.596-1.292,2.888-2.888,2.888c-1.595,0-2.888-1.292-2.888-2.888
			c0-1.595,1.293-2.888,2.888-2.888C89.688,57.344,90.98,58.638,90.98,60.232"/>
		<path clip-path="url(#SVGID_34_)" fill="#EE5B5E" d="M90.445,60.232c0,1.3-1.054,2.353-2.353,2.353
			c-1.299,0-2.353-1.053-2.353-2.353c0-1.299,1.054-2.353,2.353-2.353C89.392,57.88,90.445,58.934,90.445,60.232"/>
		<path clip-path="url(#SVGID_34_)" d="M93.869,53.184c0,1.595-1.292,2.888-2.888,2.888c-1.595,0-2.888-1.293-2.888-2.888
			c0-1.595,1.293-2.888,2.888-2.888C92.576,50.295,93.869,51.588,93.869,53.184"/>
		<path clip-path="url(#SVGID_34_)" fill="#EE5B5E" d="M93.333,53.184c0,1.299-1.053,2.353-2.353,2.353
			c-1.299,0-2.353-1.054-2.353-2.353c0-1.299,1.053-2.353,2.353-2.353C92.28,50.831,93.333,51.885,93.333,53.184"/>
		<path clip-path="url(#SVGID_34_)" d="M97.806,59.697c0,1.595-1.293,2.888-2.888,2.888s-2.888-1.293-2.888-2.888
			s1.292-2.888,2.888-2.888S97.806,58.103,97.806,59.697"/>
		<path clip-path="url(#SVGID_34_)" fill="#EE5B5E" d="M97.271,59.697c0,1.3-1.054,2.353-2.353,2.353s-2.353-1.053-2.353-2.353
			c0-1.299,1.053-2.353,2.353-2.353S97.271,58.398,97.271,59.697"/>
		<path clip-path="url(#SVGID_34_)" d="M109.999,62.585c0,1.595-1.292,2.888-2.888,2.888c-1.595,0-2.888-1.292-2.888-2.888
			c0-1.595,1.293-2.888,2.888-2.888C108.707,59.697,109.999,60.991,109.999,62.585"/>
		<path clip-path="url(#SVGID_34_)" fill="#EE5B5E" d="M109.464,62.585c0,1.299-1.053,2.353-2.353,2.353
			c-1.299,0-2.353-1.054-2.353-2.353c0-1.299,1.054-2.353,2.353-2.353C108.411,60.232,109.464,61.286,109.464,62.585"/>
		<path clip-path="url(#SVGID_34_)" d="M117.048,67.627c0,1.595-1.294,2.888-2.889,2.888s-2.887-1.293-2.887-2.888
			c0-1.595,1.292-2.888,2.887-2.888S117.048,66.032,117.048,67.627"/>
		<path clip-path="url(#SVGID_34_)" fill="#EE5B5E" d="M116.513,67.627c0,1.299-1.054,2.353-2.354,2.353
			c-1.299,0-2.352-1.054-2.352-2.353c0-1.299,1.053-2.353,2.352-2.353C115.459,65.274,116.513,66.328,116.513,67.627"/>
		<path clip-path="url(#SVGID_34_)" d="M110.535,71.25c0,1.595-1.293,2.888-2.889,2.888c-1.595,0-2.888-1.293-2.888-2.888
			c0-1.595,1.293-2.888,2.888-2.888C109.242,68.361,110.535,69.655,110.535,71.25"/>
		<path clip-path="url(#SVGID_34_)" fill="#EE5B5E" d="M109.999,71.25c0,1.3-1.053,2.353-2.353,2.353s-2.352-1.053-2.352-2.353
			c0-1.299,1.053-2.352,2.352-2.352S109.999,69.951,109.999,71.25"/>
		<path clip-path="url(#SVGID_34_)" d="M115.267,76.439c0,1.596-1.292,2.89-2.887,2.89s-2.888-1.294-2.888-2.89
			c0-1.594,1.293-2.887,2.888-2.887S115.267,74.845,115.267,76.439"/>
		<path clip-path="url(#SVGID_34_)" fill="#EE5B5E" d="M114.733,76.439c0,1.3-1.054,2.354-2.353,2.354
			c-1.3,0-2.353-1.054-2.353-2.354c0-1.298,1.053-2.352,2.353-2.352C113.679,74.087,114.733,75.141,114.733,76.439"/>
		<path clip-path="url(#SVGID_34_)" d="M109.464,80.565c0,1.595-1.293,2.888-2.888,2.888s-2.888-1.293-2.888-2.888
			s1.293-2.889,2.888-2.889S109.464,78.971,109.464,80.565"/>
		<path clip-path="url(#SVGID_34_)" fill="#EE5B5E" d="M108.928,80.565c0,1.3-1.054,2.353-2.353,2.353
			c-1.299,0-2.353-1.053-2.353-2.353s1.053-2.354,2.353-2.354C107.875,78.212,108.928,79.266,108.928,80.565"/>
		<path clip-path="url(#SVGID_34_)" d="M96.221,72.048c0,1.595-1.292,2.888-2.888,2.888s-2.888-1.293-2.888-2.888
			c0-1.595,1.293-2.888,2.888-2.888S96.221,70.453,96.221,72.048"/>
		<path clip-path="url(#SVGID_34_)" fill="#EE5B5E" d="M95.686,72.048c0,1.299-1.054,2.353-2.353,2.353
			c-1.299,0-2.353-1.053-2.353-2.353c0-1.3,1.054-2.353,2.353-2.353C94.632,69.695,95.686,70.748,95.686,72.048"/>
		<path clip-path="url(#SVGID_34_)" d="M92.03,77.142c0,1.595-1.293,2.888-2.888,2.888c-1.596,0-2.888-1.293-2.888-2.888
			c0-1.595,1.292-2.888,2.888-2.888C90.737,74.253,92.03,75.546,92.03,77.142"/>
		<path clip-path="url(#SVGID_34_)" fill="#EE5B5E" d="M91.495,77.142c0,1.299-1.054,2.353-2.353,2.353
			c-1.3,0-2.353-1.054-2.353-2.353c0-1.299,1.053-2.353,2.353-2.353C90.441,74.789,91.495,75.842,91.495,77.142"/>
		<path clip-path="url(#SVGID_34_)" d="M89.677,85.806c0,1.596-1.293,2.888-2.888,2.888s-2.888-1.292-2.888-2.888
			c0-1.595,1.292-2.889,2.888-2.889S89.677,84.211,89.677,85.806"/>
		<path clip-path="url(#SVGID_34_)" fill="#EE5B5E" d="M89.142,85.806c0,1.3-1.054,2.354-2.353,2.354s-2.353-1.054-2.353-2.354
			c0-1.299,1.053-2.353,2.353-2.353S89.142,84.507,89.142,85.806"/>
		<path clip-path="url(#SVGID_34_)" d="M94.383,98.029c0,1.595-1.293,2.888-2.888,2.888c-1.595,0-2.889-1.293-2.889-2.888
			s1.293-2.889,2.889-2.889C93.089,95.141,94.383,96.435,94.383,98.029"/>
		<path clip-path="url(#SVGID_34_)" fill="#EE5B5E" d="M93.847,98.029c0,1.3-1.053,2.353-2.352,2.353
			c-1.3,0-2.353-1.053-2.353-2.353s1.053-2.353,2.353-2.353C92.794,95.677,93.847,96.729,93.847,98.029"/>
		<path clip-path="url(#SVGID_34_)" d="M106.004,90.671c0,1.596-1.293,2.889-2.888,2.889c-1.595,0-2.888-1.293-2.888-2.889
			s1.293-2.888,2.888-2.888C104.711,87.783,106.004,89.075,106.004,90.671"/>
		<path clip-path="url(#SVGID_34_)" fill="#EE5B5E" d="M105.468,90.671c0,1.299-1.053,2.353-2.353,2.353
			c-1.299,0-2.353-1.054-2.353-2.353s1.053-2.353,2.353-2.353C104.416,88.318,105.468,89.372,105.468,90.671"/>
		<path clip-path="url(#SVGID_34_)" d="M101.998,96.704c0,1.595-1.292,2.888-2.888,2.888c-1.595,0-2.888-1.293-2.888-2.888
			s1.293-2.889,2.888-2.889C100.705,93.815,101.998,95.109,101.998,96.704"/>
		<path clip-path="url(#SVGID_34_)" fill="#EE5B5E" d="M101.462,96.704c0,1.3-1.053,2.354-2.353,2.354
			c-1.299,0-2.353-1.054-2.353-2.354s1.053-2.353,2.353-2.353C100.409,94.352,101.462,95.404,101.462,96.704"/>
		<path clip-path="url(#SVGID_34_)" d="M108.356,98.564c0,1.596-1.292,2.889-2.888,2.889c-1.595,0-2.888-1.293-2.888-2.889
			s1.293-2.888,2.888-2.888C107.064,95.677,108.356,96.969,108.356,98.564"/>
		<path clip-path="url(#SVGID_34_)" fill="#EE5B5E" d="M107.821,98.564c0,1.299-1.053,2.353-2.353,2.353
			c-1.299,0-2.353-1.054-2.353-2.353s1.054-2.353,2.353-2.353C106.768,96.212,107.821,97.266,107.821,98.564"/>
		<path clip-path="url(#SVGID_34_)" d="M101.998,104.341c0,1.595-1.292,2.889-2.888,2.889c-1.595,0-2.888-1.294-2.888-2.889
			s1.293-2.888,2.888-2.888C100.705,101.453,101.998,102.746,101.998,104.341"/>
		<path clip-path="url(#SVGID_34_)" fill="#EE5B5E" d="M101.462,104.341c0,1.299-1.053,2.353-2.353,2.353
			c-1.299,0-2.353-1.054-2.353-2.353c0-1.3,1.053-2.353,2.353-2.353C100.409,101.988,101.462,103.041,101.462,104.341"/>
		<path clip-path="url(#SVGID_34_)" d="M76.234,84.125c0,1.595-1.293,2.888-2.888,2.888s-2.888-1.293-2.888-2.888
			c0-1.596,1.293-2.89,2.888-2.89S76.234,82.529,76.234,84.125"/>
		<path clip-path="url(#SVGID_34_)" fill="#EE5B5E" d="M75.699,84.125c0,1.298-1.054,2.352-2.353,2.352
			c-1.299,0-2.353-1.054-2.353-2.352c0-1.3,1.053-2.354,2.353-2.354C74.645,81.771,75.699,82.825,75.699,84.125"/>
		<path clip-path="url(#SVGID_34_)" d="M76.639,90.671c0,1.596-1.292,2.889-2.888,2.889c-1.595,0-2.888-1.293-2.888-2.889
			s1.293-2.888,2.888-2.888C75.347,87.783,76.639,89.075,76.639,90.671"/>
		<path clip-path="url(#SVGID_34_)" fill="#EE5B5E" d="M76.104,90.671c0,1.299-1.053,2.353-2.353,2.353
			c-1.299,0-2.353-1.054-2.353-2.353s1.054-2.353,2.353-2.353C75.051,88.318,76.104,89.372,76.104,90.671"/>
		<path clip-path="url(#SVGID_34_)" fill="#7E4881" stroke="#070808" stroke-width="4" stroke-miterlimit="10" d="M216.412,70.61
			c-0.191,1.505-0.463,2.932-0.809,4.283c-0.348,1.35-0.811,2.613-1.389,3.789c-0.58,1.177-1.33,2.19-2.258,3.038
			c-0.924,0.849-2.072,1.515-3.441,1.996c-1.369,0.483-3.018,0.724-4.945,0.724c-1.467,0-2.777-0.298-3.936-0.897
			c-1.158-0.597-2.15-1.389-2.979-2.371c-0.83-0.984-1.467-2.113-1.91-3.386s-0.666-2.583-0.666-3.934
			c0-2.237,0.539-4.069,1.621-5.497c1.08-1.426,2.449-2.545,4.107-3.355c1.658-0.811,3.492-1.369,5.496-1.679
			c2.006-0.307,3.953-0.462,5.844-0.462h1.389c0.463,0,0.906,0.02,1.332,0.059c0-1.929-0.367-3.443-1.1-4.543
			c-0.734-1.099-1.678-1.928-2.834-2.487c-1.158-0.56-2.469-0.907-3.936-1.042c-1.467-0.135-2.932-0.203-4.398-0.203h-1.967
			c-1.736,0-3.203,0.347-4.398,1.042s-2.197,1.602-3.008,2.719c-0.809,1.12-1.447,2.382-1.91,3.791
			c-0.463,1.408-0.809,2.844-1.041,4.311c-0.23,1.465-0.375,2.874-0.434,4.224s-0.086,2.526-0.086,3.529v2.141
			c0,1.003,0.027,2.073,0.086,3.211s0.137,2.179,0.232,3.125c0.096,0.944,0.24,1.531,0.434,1.764
			c-0.154,0.231-0.387,0.424-0.693,0.579c-0.311,0.152-0.637,0.269-0.984,0.347c-0.348,0.076-0.705,0.125-1.07,0.144
			c-0.367,0.021-0.664,0.029-0.896,0.029c-0.193,0-0.455-0.009-0.783-0.029c-0.328-0.019-0.656-0.057-0.982-0.114
			c-0.328-0.059-0.617-0.165-0.867-0.317c-0.252-0.155-0.396-0.348-0.434-0.58c0.539-0.425,1.002-1.282,1.387-2.574
			c0.387-1.293,0.715-2.7,0.984-4.225c0.27-1.521,0.473-2.998,0.607-4.426c0.135-1.426,0.223-2.507,0.26-3.238l0.232-5.44
			c0.076-1.581,0.211-3.229,0.406-4.947c0.191-1.716,0.51-3.404,0.953-5.063c0.443-1.658,1.021-3.241,1.736-4.745
			c0.713-1.503,1.621-2.825,2.719-3.962c1.1-1.137,2.43-2.044,3.994-2.72c1.561-0.675,3.383-1.012,5.467-1.012h1.561
			c2.354,0,4.445,0.434,6.279,1.302c1.832,0.868,3.365,2.045,4.6,3.529c1.234,1.486,2.168,3.203,2.805,5.149
			c0.639,1.948,0.957,3.983,0.957,6.104c0,1.621-0.119,3.24-0.346,4.86c1.848,0.04,3.777,0.232,5.783,0.579
			c2.006,0.348,3.848,0.889,5.525,1.62c1.676,0.734,3.07,1.688,4.164,2.865c1.1,1.177,1.668,2.612,1.709,4.31h-13.654v-1.215
			c0-0.695-0.029-1.34-0.09-1.938c-0.057-0.599-0.219-1.129-0.49-1.591c-0.27-0.463-0.676-0.84-1.213-1.128
			c-0.543-0.288-1.273-0.492-2.199-0.607C216.779,67.583,216.605,69.107,216.412,70.61 M213.869,65.577
			c-0.541-0.038-1.053-0.067-1.531-0.087c-0.484-0.02-0.975-0.029-1.477-0.029c-0.697,0-1.66,0.049-2.895,0.145
			c-1.234,0.097-2.459,0.308-3.674,0.636c-1.215,0.329-2.266,0.81-3.152,1.447c-0.889,0.636-1.332,1.476-1.332,2.516
			c0,0.617,0.154,1.139,0.463,1.562c0.307,0.425,0.693,0.782,1.158,1.071c0.463,0.289,0.973,0.502,1.533,0.637
			c0.559,0.135,1.107,0.202,1.648,0.202c2.584,0,4.619-0.742,6.104-2.228c1.482-1.485,2.518-3.441,3.098-5.873H213.869z"/>
		<path clip-path="url(#SVGID_34_)" fill="#7E4881" stroke="#070808" stroke-width="4" stroke-miterlimit="10" d="M62.347,75.935
			c0.678-2.836,1.744-5.387,3.202-7.646c1.456-2.26,3.338-4.167,5.649-5.725c2.31-1.556,5.123-2.585,8.437-3.088
			c0-0.452-0.026-1.042-0.075-1.771c-0.051-0.727-0.139-1.468-0.264-2.222c-0.125-0.752-0.3-1.468-0.526-2.147
			c-0.227-0.677-0.49-1.216-0.792-1.618c0.201-0.302,0.501-0.54,0.903-0.717c0.401-0.175,0.829-0.325,1.28-0.451
			c0.453-0.126,0.905-0.201,1.356-0.227c0.452-0.024,0.854-0.038,1.205-0.038c0.201,0,0.514,0.014,0.943,0.038
			c0.426,0.025,0.852,0.088,1.279,0.189c0.427,0.1,0.816,0.238,1.169,0.414c0.35,0.177,0.526,0.415,0.526,0.715
			c-0.251,0.302-0.478,0.792-0.677,1.47c-0.202,0.677-0.377,1.406-0.528,2.184c-0.15,0.78-0.276,1.533-0.377,2.26
			c-0.101,0.729-0.176,1.293-0.225,1.694c2.309,0.252,4.393,0.817,6.25,1.695c1.858,0.88,3.454,2.034,4.785,3.465
			c1.33,1.431,2.36,3.125,3.088,5.084c0.728,1.958,1.092,4.093,1.092,6.403c0,7.734-1.57,13.484-4.708,17.252
			c-3.139,3.765-7.545,5.85-13.22,6.25c0,1.308,0.086,2.574,0.263,3.805c0.176,1.231,0.54,2.422,1.093,3.578
			c-0.402,0.651-1.119,1.055-2.148,1.205c-1.029,0.15-1.872,0.226-2.522,0.226c-0.202,0-0.517-0.014-0.943-0.037
			c-0.427-0.025-0.841-0.089-1.242-0.188c-0.403-0.101-0.767-0.239-1.092-0.414c-0.328-0.178-0.49-0.415-0.49-0.716
			c0.25-0.301,0.476-0.791,0.678-1.469c0.199-0.679,0.388-1.419,0.564-2.222c0.176-0.802,0.326-1.582,0.452-2.335
			c0.125-0.754,0.213-1.33,0.265-1.733c-2.212-0.15-4.27-0.526-6.178-1.13c-1.909-0.604-3.566-1.48-4.972-2.636
			c-1.407-1.156-2.512-2.6-3.314-4.332c-0.805-1.733-1.205-3.805-1.205-6.215C61.331,81.722,61.67,78.772,62.347,75.935
			 M78.505,74.843c-1.307,0-2.737,0.124-4.294,0.375c-1.557,0.253-3.013,0.716-4.369,1.393c-1.356,0.68-2.485,1.621-3.39,2.825
			c-0.903,1.206-1.355,2.788-1.355,4.746c0,3.817,1.13,6.778,3.389,8.888c2.26,2.109,5.248,3.216,8.964,3.316L78.505,74.843z
			 M82.309,85.69c-0.226,3.614-0.339,7.23-0.339,10.847c1.508-0.05,3.051-0.364,4.633-0.941c1.582-0.578,3.025-1.394,4.331-2.447
			c1.306-1.056,2.374-2.286,3.202-3.693c0.829-1.405,1.243-2.961,1.243-4.67c0-1.706-0.39-3.188-1.167-4.444
			c-0.78-1.255-1.771-2.285-2.976-3.089c-1.205-0.802-2.561-1.405-4.067-1.807c-1.507-0.402-3.014-0.602-4.52-0.602
			C82.648,78.458,82.535,82.072,82.309,85.69"/>
		<path clip-path="url(#SVGID_34_)" fill="#7E4881" stroke="#070808" stroke-width="4" stroke-miterlimit="10" d="M134.643,70.61
			c-0.195,1.505-0.463,2.932-0.811,4.283c-0.348,1.35-0.809,2.613-1.389,3.789c-0.578,1.177-1.332,2.19-2.256,3.038
			c-0.926,0.849-2.076,1.515-3.443,1.996c-1.369,0.483-3.018,0.724-4.948,0.724c-1.466,0-2.776-0.298-3.934-0.897
			c-1.156-0.597-2.15-1.389-2.979-2.371c-0.831-0.984-1.467-2.113-1.909-3.386c-0.444-1.272-0.666-2.583-0.666-3.934
			c0-2.237,0.54-4.069,1.619-5.497c1.081-1.426,2.45-2.545,4.108-3.355c1.659-0.811,3.491-1.369,5.498-1.679
			c2.004-0.307,3.953-0.462,5.844-0.462h1.389c0.463,0,0.906,0.02,1.33,0.059c0-1.929-0.367-3.443-1.1-4.543
			c-0.732-1.099-1.678-1.928-2.834-2.487c-1.158-0.56-2.469-0.907-3.936-1.042c-1.465-0.135-2.931-0.203-4.397-0.203h-1.967
			c-1.736,0-3.203,0.347-4.397,1.042c-1.196,0.695-2.199,1.602-3.009,2.719c-0.811,1.12-1.447,2.382-1.91,3.791
			c-0.463,1.408-0.81,2.844-1.041,4.311c-0.231,1.465-0.375,2.874-0.434,4.224s-0.088,2.526-0.088,3.529v2.141
			c0,1.003,0.03,2.073,0.088,3.211s0.134,2.179,0.231,3.125c0.095,0.944,0.24,1.531,0.433,1.764
			c-0.154,0.231-0.385,0.424-0.693,0.579c-0.31,0.152-0.638,0.269-0.984,0.347c-0.348,0.076-0.705,0.125-1.071,0.144
			c-0.367,0.021-0.665,0.029-0.896,0.029c-0.193,0-0.454-0.009-0.78-0.029c-0.33-0.019-0.657-0.057-0.984-0.114
			c-0.329-0.059-0.618-0.165-0.869-0.317c-0.251-0.155-0.396-0.348-0.434-0.58c0.54-0.425,1.003-1.282,1.389-2.574
			c0.385-1.293,0.713-2.7,0.984-4.225c0.268-1.521,0.471-2.998,0.606-4.426c0.135-1.426,0.221-2.507,0.26-3.238l0.233-5.44
			c0.076-1.581,0.212-3.229,0.405-4.947c0.192-1.716,0.51-3.404,0.954-5.063c0.444-1.658,1.022-3.241,1.736-4.745
			c0.714-1.503,1.621-2.825,2.72-3.962c1.099-1.137,2.429-2.044,3.992-2.72c1.562-0.675,3.386-1.012,5.467-1.012h1.563
			c2.354,0,4.446,0.434,6.278,1.302c1.832,0.868,3.365,2.045,4.6,3.529c1.234,1.486,2.17,3.203,2.807,5.149
			c0.637,1.948,0.955,3.983,0.955,6.104c0,1.621-0.117,3.24-0.348,4.86c1.854,0.04,3.781,0.232,5.787,0.579
			c2.004,0.348,3.848,0.889,5.523,1.62c1.68,0.734,3.068,1.688,4.168,2.865c1.098,1.177,1.666,2.612,1.705,4.31h-13.654v-1.215
			c0-0.695-0.027-1.34-0.086-1.938c-0.059-0.599-0.223-1.129-0.492-1.591c-0.27-0.463-0.676-0.84-1.217-1.128
			c-0.539-0.288-1.271-0.492-2.197-0.607C135.008,67.583,134.834,69.107,134.643,70.61 M132.096,65.577
			c-0.541-0.038-1.051-0.067-1.533-0.087s-0.975-0.029-1.477-0.029c-0.693,0-1.656,0.049-2.893,0.145
			c-1.234,0.097-2.459,0.308-3.672,0.636c-1.216,0.329-2.268,0.81-3.155,1.447c-0.887,0.636-1.331,1.476-1.331,2.516
			c0,0.617,0.154,1.139,0.463,1.562c0.308,0.425,0.694,0.782,1.158,1.071c0.463,0.289,0.973,0.502,1.533,0.637
			c0.559,0.135,1.107,0.202,1.648,0.202c2.584,0,4.619-0.742,6.104-2.228c1.486-1.485,2.518-3.441,3.098-5.873H132.096z"/>
		<path clip-path="url(#SVGID_34_)" fill="#7E4881" stroke="#070808" stroke-width="4" stroke-miterlimit="10" d="M157.234,97.378
			c0,0.426,0.018,1.12,0.057,2.084c0.039,0.963,0.115,1.978,0.232,3.037c0.115,1.061,0.25,2.046,0.404,2.951
			c0.154,0.906,0.348,1.514,0.578,1.822c-0.154,0.232-0.385,0.424-0.693,0.579c-0.309,0.152-0.646,0.27-1.012,0.347
			c-0.367,0.078-0.725,0.125-1.07,0.145c-0.348,0.018-0.637,0.029-0.867,0.029c-0.156,0-0.396-0.012-0.725-0.029
			c-0.328-0.02-0.666-0.066-1.014-0.145c-0.346-0.077-0.656-0.184-0.926-0.317c-0.27-0.136-0.404-0.32-0.404-0.552
			c0.426-0.461,0.771-1.34,1.041-2.632s0.492-2.689,0.666-4.194c0.174-1.504,0.299-2.96,0.375-4.368
			c0.078-1.407,0.137-2.459,0.176-3.152c0.191-3.125,0.404-6.25,0.635-9.374c0.232-3.125,0.348-6.25,0.348-9.375
			c0-0.346-0.01-0.973-0.027-1.88c-0.021-0.905-0.068-1.871-0.145-2.893c-0.08-1.022-0.186-1.968-0.32-2.836
			c-0.135-0.867-0.299-1.417-0.49-1.648c0.152-0.233,0.385-0.415,0.693-0.55c0.307-0.134,0.637-0.251,0.984-0.348
			c0.346-0.095,0.703-0.152,1.07-0.174c0.365-0.018,0.666-0.028,0.896-0.028c0.152,0,0.395,0.01,0.723,0.028
			c0.328,0.021,0.664,0.069,1.014,0.145c0.346,0.078,0.654,0.185,0.926,0.318c0.268,0.137,0.404,0.319,0.404,0.55
			c-0.348,0.386-0.656,1.109-0.926,2.169c-0.27,1.062-0.502,2.208-0.695,3.442c-0.193,1.236-0.357,2.431-0.492,3.588
			s-0.221,2.026-0.26,2.603c1.271-1.542,2.729-2.65,4.369-3.326c1.639-0.674,3.441-1.013,5.408-1.013
			c2.354,0,4.369,0.453,6.049,1.36c1.678,0.907,3.045,2.112,4.107,3.616c1.061,1.504,1.842,3.231,2.344,5.179
			c0.5,1.949,0.75,3.983,0.75,6.104c0,1.234-0.066,2.469-0.201,3.702c-0.137,1.235-0.299,2.47-0.492,3.703
			c-0.424-1.425-1.012-2.824-1.764-4.195c-0.754-1.367-1.67-2.583-2.748-3.645c-1.082-1.06-2.295-1.909-3.646-2.545
			c-1.35-0.637-2.836-0.954-4.453-0.954c-1.777,0-3.338,0.347-4.689,1.041c-1.35,0.693-2.479,1.619-3.383,2.776
			c-0.906,1.159-1.592,2.509-2.055,4.051c-0.463,1.544-0.695,3.145-0.695,4.802H157.234z"/>
	</g>
</g>
</svg>
